<?xml version="1.0" encoding="UTF-8"?>
<svg width="86px" height="16px" viewBox="0 0 86 16" version="1.1" xmlns="http://www.w3.org/2000/svg" xmlns:xlink="http://www.w3.org/1999/xlink">
    <!-- Generator: Sketch 60.1 (88133) - https://sketch.com -->
    <title>lockup_justadd</title>
    <desc>Created with Sketch.</desc>
    <g id="Digital-banners" stroke="none" stroke-width="1" fill="none" fill-rule="evenodd">
        <g id="320x50_f5" transform="translate(-14.000000, -19.000000)" fill="#FFFFFF" fill-rule="nonzero">
            <path d="M23.2688977,20.0611111 L23.2688977,28.6245626 C23.3422012,29.6837121 23.1977493,30.746785 22.8447652,31.7459047 C22.0566893,33.3414334 20.4069023,34.3016528 18.6564575,34.1836099 C17.4125592,34.2936303 16.1833813,33.8459232 15.2903711,32.9575705 C14.3973609,32.0692178 13.9293293,30.828567 14.008673,29.5600657 L14.008673,29.4611183 L17.7021596,29.4611183 C17.7551761,30.5675306 18.0909476,31.0712631 18.7536545,31.0712631 C19.4163615,31.0712631 19.7963134,30.6574829 19.7963134,29.3891565 L19.7963134,20.0611111 L23.2688977,20.0611111 Z M28.7384388,20.0611111 L28.7384388,28.5076248 C28.7384388,30.2347074 29.2686043,31.0712631 30.5056572,31.0712631 C31.7427101,31.0712631 32.2286952,30.4685832 32.2286952,28.5256152 L32.2286952,20.0611111 L35.7101155,20.0611111 L35.7101155,28.5436056 C35.7776091,29.6775233 35.5425115,30.8089086 35.0297364,31.8178665 C34.0651582,33.3762442 32.3478134,34.2813538 30.5410016,34.1836099 C29.5287756,34.2193786 28.5254282,33.9803236 27.6339272,33.4909778 C26.0345945,32.5374843 25.2570184,31.2421723 25.2570184,28.5615961 L25.2570184,20.0611111 L28.7384388,20.0611111 Z M41.8688718,19.8002497 C42.7077671,19.7919246 43.5359253,19.9926562 44.281125,20.3849391 C45.6969557,21.0430137 46.560681,22.5288179 46.4459676,24.1089611 L43.0087277,24.1089611 C42.8585142,23.1194867 42.46089,22.7596778 41.7805109,22.7596778 C41.1539124,22.7238414 40.6167344,23.2103789 40.5788024,23.8480997 C40.5788024,24.6666649 41.3210341,25.0444642 42.8054976,25.7011154 C45.8009329,27.0144179 46.5608368,28.111835 46.5608368,29.9288699 C46.5608368,32.6274365 44.7936184,34.1836099 41.8158553,34.1836099 C38.8380922,34.1836099 36.902988,32.6094461 36.902988,29.6320275 L36.902988,29.3351852 L40.3579001,29.3351852 C40.3579001,30.4775784 40.9322461,31.2241819 41.7981831,31.2241819 C42.1442107,31.22419 42.4759386,31.0836428 42.7197862,30.833715 C42.9636339,30.5837871 43.0994426,30.2451401 43.0970887,29.892889 C43.0970887,28.7864766 41.594953,28.3007346 40.3579001,27.7970022 C38.1400409,26.89748 37.1238903,25.683125 37.1238903,23.8840806 C37.1238903,21.5273323 39.3682577,19.8002497 41.8688718,19.8002497 Z M68.6510674,20.0611111 L74.0941002,33.9227485 L70.2857445,33.9227485 L69.6230376,31.916814 L64.8957282,31.916814 L64.1800047,33.9227485 L60.4511738,33.9227485 L65.9118788,20.0611111 L68.6510674,20.0611111 Z M83.4338497,20.906662 C85.5100572,22.186188 86.7206871,24.5298864 86.5794986,26.9964274 C86.5794986,31.5570051 83.9286709,33.9227485 79.6873466,33.9227485 L74.8098237,33.9227485 L74.8098237,20.0611111 L79.4487721,20.0611111 C80.825524,20.0013339 82.195192,20.291949 83.4338497,20.906662 Z M96.6438076,20.906662 C98.7170415,22.1890357 99.926655,24.5307664 99.7894565,26.9964274 C99.7894565,31.5570051 97.1386288,33.9227485 92.8884684,33.9227485 L88.0021094,33.9227485 L88.0021094,20.0611111 L92.6498939,20.0611111 C94.0295755,20.0002076 95.4023709,20.290842 96.6438076,20.906662 Z M55.7150284,20.0701064 L55.7150284,23.173458 L53.0553646,23.173458 L53.0553646,33.9137533 L49.5739443,33.9137533 L49.5739443,23.173458 L46.8966083,23.173458 L46.8966083,20.0701064 L55.7150284,20.0701064 Z M79.8729046,23.173458 L78.291244,23.173458 L78.291244,30.8104016 L79.8552324,30.8104016 C81.8610253,30.8104016 83.1069143,29.5420753 83.1069143,27.0144179 C83.1069143,24.4867604 81.8786975,23.173458 79.8729046,23.173458 Z M93.0563542,23.173458 L91.4746937,23.173458 L91.4746937,30.8104016 L93.038682,30.8104016 C95.0444749,30.8104016 96.2903639,29.5420753 96.2903639,27.0144179 C96.2903639,24.4867604 95.0621471,23.173458 93.0563542,23.173458 Z M67.3079814,24.4237939 L67.2549648,24.4237939 L65.8500262,29.164276 L68.704084,29.164276 L67.3079814,24.4237939 Z" id="lockup_justadd"></path>
        </g>
    </g>
</svg>