<?xml version="1.0" encoding="UTF-8"?>
<svg width="17px" height="36px" viewBox="0 0 17 36" version="1.1" xmlns="http://www.w3.org/2000/svg" xmlns:xlink="http://www.w3.org/1999/xlink">
    <!-- Generator: Sketch 60.1 (88133) - https://sketch.com -->
    <title>lockup_c</title>
    <desc>Created with Sketch.</desc>
    <g id="Digital-banners" stroke="none" stroke-width="1" fill="none" fill-rule="evenodd">
        <g id="320x50_f5" transform="translate(-105.000000, -9.000000)" fill="#FFFFFF" fill-rule="nonzero">
            <path d="M114.952379,19.3562943 C114.952379,16.4245677 114.736885,15.5575785 113.31362,15.5575785 C111.890354,15.5575785 111.669848,16.4245677 111.669848,19.3562943 L111.669848,34.2003525 C111.669848,37.132079 111.890354,37.9940568 113.31362,37.9940568 C114.736885,37.9940568 114.952379,37.132079 114.952379,34.2003525 L114.952379,30.0157513 L121.422224,30.0157513 L121.422224,34.6313414 C121.422224,41.5772781 118.530589,44.4689127 113.31362,44.4689127 C108.09665,44.4689127 105.200004,41.6023356 105.200004,34.6313414 L105.200004,18.9253054 C105.200004,11.9793687 108.091638,9.0877341 113.31362,9.0877341 C118.535601,9.0877341 121.422224,11.9793687 121.422224,18.9253054 L121.422224,23.5609414 L114.952379,23.5609414 L114.952379,19.3562943 Z" id="lockup_c"></path>
        </g>
    </g>
</svg>