<?xml version="1.0" encoding="UTF-8"?>
<svg width="17px" height="36px" viewBox="0 0 17 36" version="1.1" xmlns="http://www.w3.org/2000/svg" xmlns:xlink="http://www.w3.org/1999/xlink">
    <!-- Generator: Sketch 60.1 (88133) - https://sketch.com -->
    <title>lockup_s</title>
    <desc>Created with Sketch.</desc>
    <g id="Digital-banners" stroke="none" stroke-width="1" fill="none" fill-rule="evenodd">
        <g id="320x50_f5" transform="translate(-223.000000, -9.000000)" fill="#FFFFFF" fill-rule="nonzero">
            <path d="M239.838919,35.0873877 C239.838919,41.1713467 237.548664,44.4939702 231.900706,44.4939702 C226.252747,44.4939702 223.611687,42.0333245 223.611687,32.0654542 L230.086543,32.0654542 C230.086543,37.1571365 230.692935,38.0241258 231.900706,38.0241258 C233.108477,38.0241258 233.364063,37.1571365 233.364063,35.0873877 C233.364063,32.5816385 232.933074,31.5492698 230.086543,29.2189231 C226.939322,26.6480244 223.611687,24.5632411 223.611687,18.0482932 C223.611687,12.395323 225.987138,9.0726996 231.424613,9.0726996 C236.862089,9.0726996 239.40793,12.395323 239.40793,19.7722486 L232.933074,19.7722486 C232.933074,16.4095332 232.431925,15.542544 231.429625,15.542544 C230.427325,15.542544 230.091555,16.4095332 230.091555,18.0482932 C230.091555,20.5540424 231.21413,21.5563421 233.629673,23.395562 C237.252986,26.1568976 239.843931,28.5323478 239.843931,35.0472957" id="lockup_s"></path>
        </g>
    </g>
</svg>