<?xml version="1.0" encoding="UTF-8"?>
<svg width="18px" height="36px" viewBox="0 0 18 36" version="1.1" xmlns="http://www.w3.org/2000/svg" xmlns:xlink="http://www.w3.org/1999/xlink">
    <!-- Generator: Sketch 60.1 (88133) - https://sketch.com -->
    <title>lockup_r</title>
    <desc>Created with Sketch.</desc>
    <g id="Digital-banners" stroke="none" stroke-width="1" fill="none" fill-rule="evenodd">
        <g id="320x50_f5" transform="translate(-139.000000, -9.000000)" fill="#FFFFFF" fill-rule="nonzero">
            <path d="M156.156919,44.0379238 L149.687075,44.0379238 C149.256086,43.536774 149.185925,42.2688649 149.185925,40.9758983 L149.185925,34.3306514 C149.185925,31.8249023 148.323947,31.3939134 145.82321,31.3939134 L145.82321,44.0379238 L139.373411,44.0379238 L139.373411,9.52874596 L145.848267,9.52874596 C153.225193,9.52874596 155.685838,11.9893917 155.685838,18.9353284 L155.685838,21.9973539 C155.685838,25.7960697 154.518159,28.2567154 152.488502,29.7250844 C154.693562,30.6271541 155.685838,32.3962131 155.685838,35.633641 L155.685838,40.9758983 C155.685838,42.2688649 155.72593,43.5217395 156.156919,44.0379238 M145.848267,15.9735329 L145.848267,24.924069 C148.354016,24.924069 149.210982,24.4930801 149.210982,21.9873309 L149.210982,18.9253054 C149.210982,16.4195562 148.349005,15.9935789 145.848267,15.9935789" id="lockup_r"></path>
        </g>
    </g>
</svg>