<?xml version="1.0" encoding="UTF-8"?>
<svg width="98px" height="17px" viewBox="0 0 98 17" version="1.1" xmlns="http://www.w3.org/2000/svg" xmlns:xlink="http://www.w3.org/1999/xlink">
    <!-- Generator: Sketch 60.1 (88133) - https://sketch.com -->
    <title>lockup_justadd</title>
    <desc>Created with Sketch.</desc>
    <g id="Digital-banners" stroke="none" stroke-width="1" fill="none" fill-rule="evenodd">
        <g id="300x600_f1" transform="translate(-101.000000, -42.000000)" fill="#FFFFFF" fill-rule="nonzero">
            <path d="M111.815195,42.2894192 L111.815195,51.814724 C111.883409,52.9992303 111.704856,54.1849876 111.290792,55.2972415 C110.402027,57.0852792 108.527029,58.1694638 106.529768,58.0502198 C105.123761,58.1559926 103.740505,57.650661 102.735582,56.6641267 C101.73066,55.6775924 101.202088,54.306079 101.285742,52.9021504 L101.285742,52.7507366 L105.425763,52.7507366 C105.494763,53.975812 105.867365,54.5401725 106.626369,54.5401725 C107.385373,54.5401725 107.813175,54.0859311 107.813175,52.6681473 L107.868375,42.2894192 L111.815195,42.2894192 Z M117.983826,42.2894192 L117.983826,51.6357804 C117.983826,53.5491003 118.591029,54.4851129 119.984836,54.4851129 C121.378643,54.4851129 121.944446,53.8243982 121.944446,51.6495453 L121.985846,42.2894192 L125.960266,42.2894192 L125.960266,51.7321347 C126.04403,52.9957955 125.776616,54.2580091 125.187462,55.3798309 C124.091847,57.1104963 122.14448,58.1159136 120.095237,58.0089251 C118.946588,58.0499425 117.807841,57.7838034 116.79702,57.2380912 C114.975411,56.1644297 114.037006,54.732881 114.037006,51.7321347 L114.037006,42.2894192 L117.983826,42.2894192 Z M132.943101,42.0003565 C133.90206,41.9898463 134.849224,42.2118624 135.703115,42.6473064 C137.310755,43.3736675 138.295964,45.0206465 138.173328,46.7767738 L134.240308,46.7905387 C134.060907,45.6893474 133.605505,45.2901655 132.860301,45.2901655 C132.515199,45.2637338 132.174023,45.377456 131.914187,45.6055285 C131.654352,45.833601 131.497887,46.1566863 131.480294,46.501476 C131.480294,47.4237237 132.308298,47.8779651 134.005707,48.5662097 C137.414324,50.0252882 138.269928,51.3191879 138.269928,53.2738025 C138.269928,56.247019 136.213718,58.0089251 132.874101,58.0089251 C129.534484,58.0089251 127.340273,56.247019 127.340273,53.0122696 L127.340273,52.6130877 L131.273293,52.6130877 C131.273293,53.8794577 131.908096,54.7053512 132.901701,54.7053512 C133.294451,54.7090647 133.672199,54.5550834 133.949928,54.2780626 C134.227657,54.0010418 134.382032,53.6242568 134.378309,53.2325078 C134.378309,52.0074325 132.6671,51.4568368 131.273293,50.9062412 C128.72028,49.8738743 127.547274,48.5386799 127.547274,46.5427707 C127.547274,43.9136764 130.100287,42.0003565 132.943101,42.0003565 Z M180.180739,43.2254318 C182.529987,44.6541427 183.898811,47.2578039 183.741157,49.9977584 C183.741157,55.0907682 180.732742,57.7198624 175.916518,57.7198624 L170.36889,57.7198624 L170.36889,42.2894192 L175.640516,42.2894192 C177.20845,42.2195081 178.769066,42.541245 180.180739,43.2254318 Z M195.098614,43.2254318 C197.453155,44.6506206 198.827641,47.2549583 198.672832,49.9977584 C198.672832,55.0907682 195.664417,57.7198624 190.834393,57.7198624 L185.300565,57.7198624 L185.300565,42.2894192 L190.572191,42.2894192 C192.135691,42.2194767 193.691852,42.5412731 195.098614,43.2254318 Z M148.67518,42.2894192 L148.67518,45.7581718 L145.639165,45.7581718 L145.639165,57.7060975 L141.692345,57.7060975 L141.692345,45.7581718 L138.64253,45.7581718 L138.64253,42.2894192 L148.67518,42.2894192 Z M163.358454,42.2894192 L169.499485,57.7060975 L165.221464,57.7060975 L164.46246,55.48995 L159.080433,55.48995 L158.266229,57.7060975 L154.043408,57.7060975 L160.253439,42.2894192 L163.358454,42.2894192 Z M176.109719,45.7581718 L174.260509,45.7581718 L174.260509,54.2511098 L176.082118,54.2511098 C178.40053,54.2511098 179.780537,52.833326 179.780537,50.0252882 C179.780537,47.2172503 178.40053,45.7581718 176.109719,45.7581718 Z M191.096594,45.7581718 L189.288785,45.7581718 L189.288785,54.2511098 L191.068994,54.2511098 C193.346005,54.2511098 194.767413,52.8746207 194.767413,50.0252882 C194.767413,47.1759557 193.387406,45.7581718 191.096594,45.7581718 Z M161.840447,47.1071312 L160.184438,52.3515548 L163.427455,52.3515548 L161.840447,47.1071312 Z" id="lockup_justadd"></path>
        </g>
    </g>
</svg>