<?xml version="1.0" encoding="UTF-8"?>
<svg width="98px" height="46px" viewBox="0 0 98 46" version="1.1" xmlns="http://www.w3.org/2000/svg" xmlns:xlink="http://www.w3.org/1999/xlink">
    <!-- Generator: Sketch 60.1 (88133) - https://sketch.com -->
    <title>lockup_s</title>
    <desc>Created with Sketch.</desc>
    <g id="Digital-banners" stroke="none" stroke-width="1" fill="none" fill-rule="evenodd">
        <g id="300x600_f1" transform="translate(-101.000000, -393.000000)" fill="#FFFFFF" fill-rule="nonzero">
            <path d="M127.188472,438.01628 C110.435188,438.01628 101.285742,431.739489 101.285742,416.212692 C101.285742,400.685894 108.061576,393.459326 135.509914,393.459326 L135.509914,411.229801 C121.489044,411.229801 119.101632,412.895353 119.101632,416.212692 C119.101632,419.53003 121.489044,420.245805 127.188472,420.245805 C134.088507,420.245805 136.931321,419.048259 143.348354,411.229801 C150.358789,402.585449 156.058218,393.459326 173.998308,393.459326 C189.564786,393.459326 198.714232,399.97012 198.714232,414.905027 C198.714232,429.839934 189.564786,436.832499 169.251084,436.832499 L169.251084,419.048259 C178.510931,419.048259 180.898343,417.67177 180.898343,414.918792 C180.898343,412.165814 178.510931,411.243566 173.998308,411.243566 C167.098273,411.243566 164.338259,414.326902 159.273634,420.961579 C151.655996,430.913596 145.128563,438.030044 127.188472,438.030044" id="lockup_s"></path>
        </g>
    </g>
</svg>