<?xml version="1.0" encoding="UTF-8"?>
<svg width="96px" height="47px" viewBox="0 0 96 47" version="1.1" xmlns="http://www.w3.org/2000/svg" xmlns:xlink="http://www.w3.org/1999/xlink">
    <!-- Generator: Sketch 60.1 (88133) - https://sketch.com -->
    <title>lockup_r</title>
    <desc>Created with Sketch.</desc>
    <g id="Digital-banners" stroke="none" stroke-width="1" fill="none" fill-rule="evenodd">
        <g id="300x600_f1" transform="translate(-102.000000, -162.000000)" fill="#FFFFFF" fill-rule="nonzero">
            <path d="M102.500148,208.170124 L102.500148,190.39965 C103.880155,189.215869 107.371573,189.023161 110.93199,189.023161 L129.203282,189.023161 C136.103317,189.023161 137.290123,186.655599 137.290123,179.786919 L102.500148,179.786919 L102.500148,162.071503 L197.527426,162.071503 L197.527426,179.855743 C197.527426,200.117663 190.751592,206.876225 171.624696,206.876225 L163.220454,206.876225 C152.760001,206.876225 145.984167,203.669005 141.940747,198.107989 C139.456734,204.150776 134.58531,206.876225 125.670465,206.876225 L110.90439,206.876225 C107.343972,206.876225 103.893955,206.986344 102.472548,208.170124 M179.752937,179.855743 L155.106013,179.855743 C155.106013,186.738189 156.292819,189.091985 163.192854,189.091985 L171.624696,189.091985 C178.524731,189.091985 179.697737,186.724424 179.697737,179.855743" id="lockup_r"></path>
        </g>
    </g>
</svg>