<?xml version="1.0" encoding="UTF-8"?>
<svg width="98px" height="45px" viewBox="0 0 98 45" version="1.1" xmlns="http://www.w3.org/2000/svg" xmlns:xlink="http://www.w3.org/1999/xlink">
    <!-- Generator: Sketch 60.1 (88133) - https://sketch.com -->
    <title>lockup_c</title>
    <desc>Created with Sketch.</desc>
    <g id="Digital-banners" stroke="none" stroke-width="1" fill="none" fill-rule="evenodd">
        <g id="300x600_f1" transform="translate(-101.000000, -68.000000)" fill="#FFFFFF" fill-rule="nonzero">
            <path d="M170.43789,94.9951881 C178.510931,94.9951881 180.898343,94.4032977 180.898343,90.4940686 C180.898343,86.5848395 178.510931,86.0480087 170.43789,86.0480087 L129.562084,86.0480087 C121.489044,86.0480087 119.101632,86.6536639 119.101632,90.5628931 C119.101632,94.4721222 121.489044,95.0640125 129.562084,95.0640125 L141.140343,95.0640125 L141.140343,112.765663 L128.375278,112.765663 C109.248382,112.765663 101.285742,104.82332 101.285742,90.4940686 C101.285742,76.1648168 109.248382,68.15365 128.375278,68.15365 L171.624696,68.15365 C190.820593,68.15365 198.714232,76.1510519 198.714232,90.4940686 C198.714232,104.837085 190.820593,112.765663 171.624696,112.765663 L158.914832,112.765663 L158.914832,94.9951881 L170.43789,94.9951881 Z" id="lockup_c"></path>
        </g>
    </g>
</svg>