<?xml version="1.0" encoding="UTF-8"?>
<svg width="78px" height="36px" viewBox="0 0 78 36" version="1.1" xmlns="http://www.w3.org/2000/svg" xmlns:xlink="http://www.w3.org/1999/xlink">
    <!-- Generator: Sketch 60.1 (88133) - https://sketch.com -->
    <title>lockup_s</title>
    <desc>Created with Sketch.</desc>
    <g id="Digital-banners" stroke="none" stroke-width="1" fill="none" fill-rule="evenodd">
        <g id="160x600_f3" transform="translate(-42.000000, -375.000000)" fill="#FFFFFF" fill-rule="nonzero">
            <path d="M62.7373938,410.988882 C49.3249292,410.988882 42,405.919086 42,393.378011 C42,380.836936 47.4246459,375 69.3994334,375 L69.3994334,389.353305 C58.1745042,389.353305 56.2631728,390.698579 56.2631728,393.378011 C56.2631728,396.057443 58.1745042,396.635578 62.7373938,396.635578 C68.2614731,396.635578 70.5373938,395.668314 75.6747875,389.353305 C81.2872521,382.371217 85.8501416,375 100.212748,375 C112.675071,375 120,380.258802 120,392.321804 C120,404.384805 112.675071,410.032736 96.4121813,410.032736 L96.4121813,395.668314 C103.825496,395.668314 105.736827,394.556516 105.736827,392.332922 C105.736827,390.109327 103.825496,389.364422 100.212748,389.364422 C94.6886686,389.364422 92.4790368,391.854849 88.4243626,397.213712 C82.325779,405.252007 77.1,411 62.7373938,411" id="lockup_s"></path>
        </g>
    </g>
</svg>