<?xml version="1.0" encoding="UTF-8"?>
<svg width="76px" height="37px" viewBox="0 0 76 37" version="1.1" xmlns="http://www.w3.org/2000/svg" xmlns:xlink="http://www.w3.org/1999/xlink">
    <!-- Generator: Sketch 60.1 (88133) - https://sketch.com -->
    <title>lockup_r</title>
    <desc>Created with Sketch.</desc>
    <g id="Digital-banners" stroke="none" stroke-width="1" fill="none" fill-rule="evenodd">
        <g id="160x600_f3" transform="translate(-43.000000, -190.000000)" fill="#FFFFFF" fill-rule="nonzero">
            <path d="M43.0220674,227 L43.0220674,212.736936 C44.1254355,211.786802 46.916957,211.632129 49.7636469,211.632129 L64.3722416,211.632129 C69.8890825,211.632129 70.8379791,209.73186 70.8379791,204.218871 L43.0220674,204.218871 L43.0220674,190 L119,190 L119,204.274112 C119,220.536877 113.582462,225.961481 98.2897793,225.961481 L91.5702671,225.961481 C83.2067364,225.961481 77.7891986,223.38728 74.5563298,218.923858 C72.5702671,223.773962 68.6753775,225.961481 61.547619,225.961481 L49.7415796,225.961481 C46.8948897,225.961481 44.1364692,226.049866 43,227 M104.788618,204.274112 L85.0824623,204.274112 C85.0824623,209.798149 86.0313589,211.687369 91.5481998,211.687369 L98.2897793,211.687369 C103.80662,211.687369 104.744483,209.787101 104.744483,204.274112" id="lockup_r"></path>
        </g>
    </g>
</svg>