<?xml version="1.0" encoding="UTF-8"?>
<svg width="78px" height="36px" viewBox="0 0 78 36" version="1.1" xmlns="http://www.w3.org/2000/svg" xmlns:xlink="http://www.w3.org/1999/xlink">
    <!-- Generator: Sketch 60.1 (88133) - https://sketch.com -->
    <title>lockup_c</title>
    <desc>Created with Sketch.</desc>
    <g id="Digital-banners" stroke="none" stroke-width="1" fill="none" fill-rule="evenodd">
        <g id="160x600_f3" transform="translate(-42.000000, -114.000000)" fill="#FFFFFF" fill-rule="nonzero">
            <path d="M97.3623229,135.659981 C103.825496,135.659981 105.736827,135.182351 105.736827,132.027769 C105.736827,128.873187 103.825496,128.439988 97.3623229,128.439988 L64.6376771,128.439988 C58.1745042,128.439988 56.2631728,128.928726 56.2631728,132.083308 C56.2631728,135.23789 58.1745042,135.71552 64.6376771,135.71552 L73.9070822,135.71552 L73.9070822,150 L63.6875354,150 C48.3747875,150 42,143.590867 42,132.027769 C42,120.464671 48.3747875,114 63.6875354,114 L98.3124646,114 C113.680453,114 120,120.453564 120,132.027769 C120,143.601975 113.680453,150 98.3124646,150 L88.1371105,150 L88.1371105,135.659981 L97.3623229,135.659981 Z" id="lockup_c"></path>
        </g>
    </g>
</svg>