<?xml version="1.0" encoding="UTF-8"?>
<svg width="78px" height="13px" viewBox="0 0 78 13" version="1.1" xmlns="http://www.w3.org/2000/svg" xmlns:xlink="http://www.w3.org/1999/xlink">
    <!-- Generator: Sketch 60.1 (88133) - https://sketch.com -->
    <title>lockup_justadd</title>
    <desc>Created with Sketch.</desc>
    <g id="Digital-banners" stroke="none" stroke-width="1" fill="none" fill-rule="evenodd">
        <g id="160x600_f3" transform="translate(-42.000000, -94.000000)" fill="#FFFFFF" fill-rule="nonzero">
            <path d="M50.4384587,94.2342157 L50.4384587,101.942675 C50.4930817,102.90125 50.3501036,103.860837 50.0185383,104.760941 C49.3068515,106.20793 47.8054291,107.085319 46.2061035,106.988819 C45.0802302,107.074417 43.9725748,106.665472 43.1678734,105.867108 C42.363172,105.068744 41.9399129,103.958831 42.0068999,102.822687 L42.0068999,102.700153 L45.3220606,102.700153 C45.3773133,103.691559 45.6756778,104.148274 46.2834572,104.148274 C46.8912367,104.148274 47.2338033,103.780674 47.2338033,102.633317 L47.2780054,94.2342157 L50.4384587,94.2342157 Z M55.3780481,94.2342157 L55.3780481,101.797863 C55.3780481,103.346238 55.8642717,104.103717 56.9803758,104.103717 C58.0964799,104.103717 58.5495519,103.569026 58.5495519,101.809002 L58.5827035,94.2342157 L61.7652578,94.2342157 L61.7652578,101.875838 C61.8323324,102.89847 61.6181985,103.91993 61.1464278,104.827777 C60.2691037,106.228337 58.7097312,107.041983 57.0687801,106.955401 C56.1489887,106.988595 55.2371267,106.773219 54.4277021,106.331595 C52.9690313,105.462723 52.2175949,104.304226 52.2175949,101.875838 L52.2175949,94.2342157 L55.3780481,94.2342157 Z M67.3568289,94.0002885 C68.124724,93.991783 68.8831744,94.171452 69.566936,94.5238399 C70.8542686,95.1116558 71.6431839,96.4444918 71.5449819,97.8656574 L68.3955792,97.8767968 C68.2519223,96.9856455 67.8872546,96.6626031 67.2905257,96.6626031 C67.0141818,96.6412129 66.7409821,96.7332439 66.5329163,96.9178141 C66.3248505,97.1023843 66.1995595,97.3638447 66.1854721,97.6428696 C66.1854721,98.3892088 66.8485042,98.7568087 68.2077201,99.3137783 C70.9372025,100.494554 71.6223357,101.541657 71.6223357,103.12345 C71.6223357,105.529559 69.9758058,106.955401 67.3015762,106.955401 C64.6273465,106.955401 62.8703114,105.529559 62.8703114,102.911802 L62.8703114,102.588759 L66.019714,102.588759 C66.019714,103.613583 66.5280387,104.281947 67.3236773,104.281947 C67.6381756,104.284952 67.9406608,104.160341 68.1630548,103.936159 C68.3854487,103.711977 68.5090658,103.407059 68.5060846,103.090032 C68.5060846,102.098626 67.1358182,101.653051 66.019714,101.207475 C63.9753649,100.372021 63.0360694,99.2914995 63.0360694,97.6762878 C63.0360694,95.548664 65.0804185,94.0002885 67.3568289,94.0002885 Z M105.182813,94.9916944 C107.063995,96.1478946 108.160094,98.2549364 108.033851,100.472275 C108.033851,104.59385 105.624834,106.721474 101.768197,106.721474 L97.3258818,106.721474 L97.3258818,94.2342157 L101.547186,94.2342157 C102.802724,94.1776394 104.052402,94.4380085 105.182813,94.9916944 Z M117.128442,94.9916944 C119.013862,96.1450443 120.114495,98.2526335 119.990531,100.472275 C119.990531,104.59385 117.581514,106.721474 113.713826,106.721474 L109.282561,106.721474 L109.282561,94.2342157 L113.503866,94.2342157 C114.755853,94.177614 116.001964,94.4380313 117.128442,94.9916944 Z M79.9544396,94.2342157 L79.9544396,97.0413424 L77.5233217,97.0413424 L77.5233217,106.710334 L74.3628685,106.710334 L74.3628685,97.0413424 L71.9207001,97.0413424 L71.9207001,94.2342157 L79.9544396,94.2342157 Z M91.7122096,94.2342157 L96.629698,106.710334 L93.204032,106.710334 L92.5962525,104.916892 L88.2865436,104.916892 L87.6345619,106.710334 L84.253098,106.710334 L89.2258391,94.2342157 L91.7122096,94.2342157 Z M101.922905,97.0413424 L100.442133,97.0413424 L100.442133,103.914347 L101.900804,103.914347 C103.757294,103.914347 104.862347,102.76699 104.862347,100.494554 C104.862347,98.2221179 103.757294,97.0413424 101.922905,97.0413424 Z M113.923786,97.0413424 L112.476166,97.0413424 L112.476166,103.914347 L113.901685,103.914347 C115.725024,103.914347 116.863229,102.800408 116.863229,100.494554 C116.863229,98.1886998 115.758175,97.0413424 113.923786,97.0413424 Z M90.4966507,98.1330028 L89.1705864,102.377111 L91.7674623,102.377111 L90.4966507,98.1330028 Z" id="lockup_justadd"></path>
        </g>
    </g>
</svg>