<?xml version="1.0" encoding="UTF-8"?>
<svg width="28px" height="60px" viewBox="0 0 28 60" version="1.1" xmlns="http://www.w3.org/2000/svg" xmlns:xlink="http://www.w3.org/1999/xlink">
    <!-- Generator: Sketch 60.1 (88133) - https://sketch.com -->
    <title>lockup_s</title>
    <desc>Created with Sketch.</desc>
    <g id="Digital-banners" stroke="none" stroke-width="1" fill="none" fill-rule="evenodd">
        <g id="728x90_f4" transform="translate(-489.000000, -16.000000)" fill="#FFFFFF" fill-rule="nonzero">
            <path d="M516.398184,59.478977 C516.398184,69.6189083 512.581093,75.1566138 503.167828,75.1566138 C493.754564,75.1566138 489.352798,71.0555378 489.352798,54.4424213 L500.144225,54.4424213 C500.144225,62.9285582 501.154877,64.3735402 503.167828,64.3735402 C505.18078,64.3735402 505.606758,62.9285582 505.606758,59.478977 C505.606758,55.3027285 504.888443,53.5821141 500.144225,49.698203 C494.898856,45.4133721 489.352798,41.9387333 489.352798,31.0804873 C489.352798,21.6588707 493.311882,16.1211652 502.374341,16.1211652 C511.4368,16.1211652 515.679869,21.6588707 515.679869,33.9537462 L504.888443,33.9537462 C504.888443,28.3492208 504.053193,26.9042388 502.382694,26.9042388 C500.712194,26.9042388 500.152577,28.3492208 500.152577,31.0804873 C500.152577,35.2567358 502.023536,36.9272352 506.04944,39.9926015 C512.088295,44.5948274 516.406536,48.5539109 516.406536,59.412157" id="lockup_s"></path>
        </g>
    </g>
</svg>