<?xml version="1.0" encoding="UTF-8"?>
<svg width="143px" height="24px" viewBox="0 0 143 24" version="1.1" xmlns="http://www.w3.org/2000/svg" xmlns:xlink="http://www.w3.org/1999/xlink">
    <!-- Generator: Sketch 60.1 (88133) - https://sketch.com -->
    <title>lockup_justadd</title>
    <desc>Created with Sketch.</desc>
    <g id="Digital-banners" stroke="none" stroke-width="1" fill="none" fill-rule="evenodd">
        <g id="728x90_f4" transform="translate(-140.000000, -34.000000)" fill="#FFFFFF" fill-rule="nonzero">
            <path d="M155.448162,34.4351837 L155.448162,48.7076023 C155.570335,50.4728513 155.329582,52.2446394 154.741275,53.9098389 C153.427815,56.5690533 150.67817,58.1694189 147.760762,57.9726808 C145.687598,58.156048 143.638969,57.4098696 142.150618,55.9292818 C140.662268,54.448694 139.882215,52.3809428 140.014455,50.2667741 L140.014455,50.1018617 L146.170266,50.1018617 C146.258627,51.9458822 146.818246,52.7854362 147.922757,52.7854362 C149.027269,52.7854362 149.660522,52.0958025 149.660522,49.9819254 L149.660522,34.4351837 L155.448162,34.4351837 Z M164.564064,34.4351837 L164.564064,48.5127058 C164.564064,51.3911768 165.447673,52.7854362 167.509428,52.7854362 C169.571182,52.7854362 170.381157,51.7809698 170.381157,48.5426899 L170.381157,34.4351837 L176.183524,34.4351837 L176.183524,48.572674 C176.296014,50.4625367 175.904184,52.3481787 175.049559,54.0297752 C173.441929,56.6270712 170.579688,58.1355872 167.568335,57.9726808 C165.881292,58.0322952 164.209046,57.6338703 162.723211,56.818294 C160.057657,55.2291381 158.761697,53.0702849 158.761697,48.6026581 L158.761697,34.4351837 L164.564064,34.4351837 Z M186.448118,34.0004146 C187.846277,33.9865395 189.22654,34.3210921 190.46854,34.974897 C192.828257,36.071688 194.2678,38.5480281 194.076611,41.1816001 L188.347878,41.1816001 C188.097522,39.5324761 187.434815,38.9327946 186.30085,38.9327946 C185.256519,38.8730672 184.361222,39.6839631 184.298002,40.746831 C184.298002,42.1111063 185.535055,42.7407718 188.009161,43.8351905 C193.001553,46.0240278 194.268059,47.8530562 194.268059,50.8814476 C194.268059,55.3790585 191.322695,57.9726808 186.359757,57.9726808 C181.396819,57.9726808 178.171645,55.3490744 178.171645,50.3867104 L178.171645,49.8919732 L183.929832,49.8919732 C183.929832,51.7959618 184.887075,53.0403008 186.330303,53.0403008 C186.907016,53.0403144 187.459896,52.8060691 187.866308,52.3895227 C188.272721,51.9729764 188.499069,51.4085646 188.495146,50.8214794 C188.495146,48.977459 185.991586,48.167889 183.929832,47.328335 C180.2334,45.8291313 178.539816,43.8052064 178.539816,40.8067991 C178.539816,36.8788856 182.280428,34.0004146 186.448118,34.0004146 Z M231.085109,34.4351837 L240.15683,57.5379117 L233.80957,57.5379117 L232.705059,54.1946876 L224.82621,54.1946876 L223.633338,57.5379117 L217.41862,57.5379117 L226.519795,34.4351837 L231.085109,34.4351837 Z M255.723078,35.8444351 C259.183424,37.9769783 261.20114,41.8831421 260.965826,45.9940437 C260.965826,53.5950062 256.54778,57.5379117 249.478907,57.5379117 L241.349702,57.5379117 L241.349702,34.4351837 L249.081283,34.4351837 C251.375869,34.3355549 253.658649,34.8199135 255.723078,35.8444351 Z M277.739674,35.8444351 C281.195063,37.9817245 283.211086,41.8846088 282.982422,45.9940437 C282.982422,53.5950062 278.564376,57.5379117 271.480775,57.5379117 L263.336844,57.5379117 L263.336844,34.4351837 L271.083151,34.4351837 C273.382621,34.3336779 275.670613,34.8180684 277.739674,35.8444351 Z M209.525045,34.4501757 L209.525045,39.6224283 L205.092272,39.6224283 L205.092272,57.5229197 L199.289905,57.5229197 L199.289905,39.6224283 L194.827678,39.6224283 L194.827678,34.4501757 L209.525045,34.4501757 Z M249.78817,39.6224283 L247.152069,39.6224283 L247.152069,52.3506671 L249.758716,52.3506671 C253.101704,52.3506671 255.178186,50.23679 255.178186,46.0240278 C255.178186,41.8112656 253.131158,39.6224283 249.78817,39.6224283 Z M271.760585,39.6224283 L269.124484,39.6224283 L269.124484,52.3506671 L271.731131,52.3506671 C275.07412,52.3506671 277.150601,50.23679 277.150601,46.0240278 C277.150601,41.8112656 275.103573,39.6224283 271.760585,39.6224283 Z M228.846632,41.7063213 L228.758271,41.7063213 L226.416707,49.6071245 L231.17347,49.6071245 L228.846632,41.7063213 Z" id="lockup_justadd"></path>
        </g>
    </g>
</svg>