<?xml version="1.0" encoding="UTF-8"?>
<svg width="28px" height="60px" viewBox="0 0 28 60" version="1.1" xmlns="http://www.w3.org/2000/svg" xmlns:xlink="http://www.w3.org/1999/xlink">
    <!-- Generator: Sketch 60.1 (88133) - https://sketch.com -->
    <title>lockup_c</title>
    <desc>Created with Sketch.</desc>
    <g id="Digital-banners" stroke="none" stroke-width="1" fill="none" fill-rule="evenodd">
        <g id="728x90_f4" transform="translate(-292.000000, -16.000000)" fill="#FFFFFF" fill-rule="nonzero">
            <path d="M308.253959,33.260489 C308.253959,28.3742783 307.894802,26.9292963 305.522693,26.9292963 C303.150583,26.9292963 302.783074,28.3742783 302.783074,33.260489 L302.783074,58.000585 C302.783074,62.8867957 303.150583,64.3234252 305.522693,64.3234252 C307.894802,64.3234252 308.253959,62.8867957 308.253959,58.000585 L308.253959,51.02625 L319.037033,51.02625 L319.037033,58.7188998 C319.037033,70.2954606 314.217642,75.1148513 305.522693,75.1148513 C296.827743,75.1148513 292,70.337223 292,58.7188998 L292,32.5421743 C292,20.9656134 296.819391,16.1462227 305.522693,16.1462227 C314.225994,16.1462227 319.037033,20.9656134 319.037033,32.5421743 L319.037033,40.2682339 L308.253959,40.2682339 L308.253959,33.260489 Z" id="lockup_c"></path>
        </g>
    </g>
</svg>