<?xml version="1.0" encoding="UTF-8"?>
<svg width="29px" height="59px" viewBox="0 0 29 59" version="1.1" xmlns="http://www.w3.org/2000/svg" xmlns:xlink="http://www.w3.org/1999/xlink">
    <!-- Generator: Sketch 52.6 (67491) - http://www.bohemiancoding.com/sketch -->
    <title>lockup_r</title>
    <desc>Created with Sketch.</desc>
    <g id="Digital-banners---Children's-Quarter" stroke="none" stroke-width="1" fill="none" fill-rule="evenodd">
        <g id="728x90_v2_f5" transform="translate(-348.000000, -16.000000)" fill="#FFFFFF" fill-rule="nonzero">
            <g id="Group" transform="translate(140.000000, -4.000000)">
                <path d="M236.928189,78.3965366 L226.145116,78.3965366 C225.426801,77.5612869 225.309866,75.4481051 225.309866,73.2931609 L225.309866,62.2177499 C225.309866,58.0415015 223.873236,57.3231867 219.70534,57.3231867 L219.70534,78.3965366 L208.955677,78.3965366 L208.955677,20.8812424 L219.747103,20.8812424 C232.041978,20.8812424 236.143054,24.9823184 236.143054,36.5588792 L236.143054,41.6622549 C236.143054,47.9934476 234.196923,52.0945236 230.814161,54.5418052 C234.48926,56.0452547 236.143054,58.9936861 236.143054,64.3893992 L236.143054,73.2931609 C236.143054,75.4481051 236.209874,77.5362294 236.928189,78.3965366 M219.747103,31.6225535 L219.747103,46.5401131 C223.923351,46.5401131 225.351628,45.8217984 225.351628,41.6455499 L225.351628,36.5421743 C225.351628,32.3659258 223.914999,31.6559635 219.747103,31.6559635" id="lockup_r"></path>
            </g>
        </g>
    </g>
</svg>