<?xml version="1.0" encoding="UTF-8"?>
<svg version="1.1" viewBox="0 0 200 50" xmlns="http://www.w3.org/2000/svg">
<title>logo-slv</title>
<desc>Created with Sketch.</desc>
<g fill="none" fill-rule="evenodd">
<g transform="translate(-50 -24)" fill="#fff" fill-rule="nonzero">
<path d="m155.71 59.33c4.0272-0.0025827 7.2944 3.2772 7.2988 7.3268 0.004349 4.0496-3.2559 7.3365-7.283 7.3427-4.0272 0.0061252-7.2973-3.2708-7.3052-7.3204-0.011258-1.9493 0.75246-3.8223 2.1214-5.2024 1.3689-1.3801 3.2296-2.153 5.1681-2.1466zm-84.99 8.3873 2.5008 1.4527-8.2982 4.8295-2.4961-1.4574 8.2935-4.8247zm62.023-8.3636c2.8454-0.013248 5.4283 1.6697 6.5789 4.2866h-2.9413c-0.89535-1.1621-2.2704-1.8482-3.7323-1.8623-2.2593 0.0047629-4.5422 2.0575-4.5422 4.8676 0 2.6386 2.1693 4.9009 4.637 4.9009 1.8661 0 2.8845-1.1002 3.5049-1.767h2.9982c-1.1472 2.5465-3.6662 4.1861-6.4463 4.196-4.0199-0.044222-7.2598-3.3256-7.2751-7.3681 0.033497-3.994 3.2465-7.2227 7.2183-7.2538zm36.84 0.30014c1.6056 0 2.605 0.30958 3.396 0.95256 1.032 0.82405 1.6351 2.0755 1.6388 3.4006-0.011492 1.2418-0.49044 2.4331-1.3404 3.334-0.64156 0.59636-1.441 0.99334-2.3019 1.1431l3.7891 5.1819h-3.1308l-3.6944-5.3725h-0.037891v5.4106h-2.5813v-14.05zm-46.374-0.019051v14.055h-2.5813v-14.055h2.5813zm24.677 0v2.429h-2.6003v11.626h-2.5813v-11.626h-2.5861v-2.429h7.7677zm-39.161 0 3.7276 10.693h0.037891l3.7512-10.693h2.714l-5.409 14.055h-2.1077l-5.4279-14.055h2.714zm80.382 0 5.8305 14.055h-2.8419l-1.4872-3.6293h-4.9922l-1.492 3.6293h-2.8419l5.8068-14.055h2.0177zm-9.4728 0v14.055h-2.5813v-14.055h2.5813zm-118.06 7.5872 2.5008 1.4574-6.9152 4.0198-2.4961-1.4527 6.9104-4.0246zm94.136-5.4439c-2.6008-0.011925-4.7246 2.0871-4.7577 4.7022-0.033093 2.6151 2.037 4.7678 4.6372 4.8224s4.7578-2.0094 4.8333-4.6236c0.021536-1.2784-0.46293-2.513-1.3468-3.4321-0.88385-0.91914-2.0947-1.4475-3.366-1.4688zm-80.841 3.5245 2.4961 1.4574-2.7613 1.6051-2.5008-1.4527 2.7661-1.6098zm-22.38-4.0913v3.2197l0.8715-0.50962 4.4428 2.5862-2.3872 1.3907-1.1415-0.66679-0.97097 0.57154-3.2965-1.9147-0.0047364 0.0047628v-3.2339l2.4866-1.4479zm17.383 1.1859 2.4961 1.4527-6.9104 4.0246-2.5008-1.4574 6.9152-4.0198zm118.24 0.90017h-0.037891l-1.582 4.3151h3.2018l-1.582-4.3151zm-18.562-1.2288h-1.6577v4.2865l1.6577 0.0047628c2.1314 0 2.4914-1.3812 2.4914-2.1623 0-0.7811-0.47364-2.129-2.4914-2.129zm-95.827-2.9006 5.0348 2.9244v3.7626l-5.0348-2.9291v-3.7579zm-9.3686-7.1776 3.0976 1.7813v1.767l3.1213 1.8146v3.7579l-6.2094-3.6102 0.014209 0.0095256-1.4683 0.85254 4.4333 2.5814-2.3872 1.3907-1.1415-0.66679-4.779 2.7815-3.2871-1.9099-0.77204 0.4477v-6.4203l2.4866-1.4479v6.406l2.4819-1.4479v-2.7577l1.1367-0.66203v-2.7624l3.2729-1.9051zm0.0094728-24.9v2.5957l14.385 8.3683v2.8434l-14.385-8.3683v2.8434l14.385 8.3683v2.8482l-14.385-8.3683v2.8434l19.817 11.526v2.8482l-19.817-11.531v2.8434l21.186 12.326v2.8339l-0.0094729 0.0047628-21.181-12.321-4.4143 2.5672v-5.9059l1.1367-0.66203v-16.594l3.2823-1.9099zm-11.869 21.323v11.197l-2.4866 1.4479v-11.202l2.4866-1.4431zm33.524 6.2774 4.4522 2.591v1.7861l-0.0094728 0.0047628-4.4428-2.5862v-1.7956zm38.824-12.312c2.2283-0.016477 4.0611 1.7609 4.1254 4.0008h-2.6382c-0.11367-1.2526-0.86676-1.5765-1.563-1.5765-0.37999-0.01062-0.74758 0.1365-1.0164 0.4068s-0.41511 0.63993-0.40455 1.022c0 1.2145 0.89518 1.4812 2.3161 1.9575 1.1462 0.38579 3.6518 1.2812 3.6518 4.3342 0 3.053-2.3351 4.4818-4.5233 4.4818-2.4284 0.045945-4.4473-1.8698-4.5422-4.3103h2.714c0.13262 1.405 1.0562 1.8813 1.8472 1.8813 0.48964 0.028511 0.96998-0.14304 1.332-0.47573 0.36206-0.33269 0.57516-0.79833 0.59094-1.2913 0-1.4288-0.9236-1.7146-2.6571-2.3814-1.0704-0.41436-3.3155-1.0812-3.3155-4.0436-0.006957-1.082 0.42425-2.1202 1.1944-2.8757 0.77015-0.75558 1.8129-1.1635 2.8884-1.1298zm69.513 0.30501c1.4573 0.0031515 2.898 0.059879 4.0386 1.081 0.7326 0.67534 1.1616 1.6205 1.1888 2.6195 0.039845 1.1181-0.57286 2.1568-1.5678 2.6576 0.9236 0.34292 2.3966 1.1145 2.3966 3.4959v0.028577c0.016202 1.3337-0.63511 2.5863-1.7335 3.334-1.0562 0.73824-2.695 0.83349-3.5997 0.83349h-3.7323v-14.05zm-5.851-0.019237v14.055h-2.5813v-14.055h2.5813zm-29.541 0v2.429h-2.6003v11.621h-2.5813v-11.621h-2.5813v-2.429h7.763zm-13.342 0 5.8305 14.05h-2.8419l-1.4872-3.6245h-4.9922l-1.492 3.6245h-2.8419l5.8068-14.05h2.0177zm33.818 0v11.621h4.258v2.429h-6.8441v-14.05h2.5861zm61.635 0 3.036 6.4536 3.055-6.4536h2.8419l-4.5943 8.8684v5.1819h-2.5813v-5.1819l-4.5801-8.8684h2.8229zm-20.13 0 5.8353 14.05h-2.8419l-1.4872-3.6245h-4.9969l-1.492 3.6245h-2.8419l5.8068-14.05h2.0177zm-14.176-0.0047628c1.6009 0 2.6003 0.30482 3.3913 0.95256 1.032 0.82405 1.6351 2.0755 1.6388 3.4006-0.002531 1.2511-0.48033 2.454-1.3357 3.3625-0.64486 0.60507-1.4516 1.0074-2.3208 1.1574l3.8033 5.1819h-3.126l-3.6944-5.3725h-0.037891v5.3677h-2.5813v-14.05zm25.728 0c1.6009 0 2.6003 0.30482 3.3913 0.95256 1.032 0.82405 1.6351 2.0755 1.6388 3.4006-0.00429 1.2517-0.48375 2.4544-1.3404 3.3625-0.64372 0.60401-1.4486 1.0062-2.3161 1.1574l3.7891 5.1819h-3.1308l-3.6944-5.3725h-0.037892l0.018946 5.3677h-2.5813v-14.05zm-64.401 0.0047628v2.429h-4.9211v3.4387h4.7127v2.429h-4.7127v3.3244h4.9211v2.429h-7.5025v-14.05h7.5025zm-29.948 0v2.429h-2.6003v11.621h-2.5813v-11.621h-2.5813v-2.429h7.763zm-55.672 4.2675 10.809 6.2964v1.7956l-10.809-6.2917v-1.8003zm-25.013-6.2107v12.802l-2.4866 1.4431v-12.798l2.4866-1.4479zm137.82 9.84h-1.3546v3.7245l1.425-6.046e-4c0.66313-0.0081621 2.4778-0.12651 2.4778-1.8426 0-0.56677-0.28418-1.8813-2.5482-1.8813zm-103.11-3.6674 8.0566 4.6818v1.7956l-8.0566-4.6818v-1.7956zm52.446-0.54296h-0.037891l-1.582 4.2865h3.2018l-1.582-4.2865zm75.323-0.023814h-0.037891l-1.582 4.2865h3.2018l-1.582-4.2865zm-13.215-1.2288h-1.6577v4.2865l1.6577 0.0047628c2.1314 0 2.4866-1.3812 2.4866-2.1623 0-0.7811-0.4689-2.129-2.4866-2.129zm25.728-0.0047629h-1.6625v4.2913h1.6625c2.1267 0 2.4866-1.3812 2.4866-2.1623 0-0.7811-0.47364-2.129-2.4866-2.129zm-37.456 0h-1.0752v3.0387l0.92162-8.64e-5c0.65029-0.0021611 2.1523-0.05835 2.1523-1.5193 0-0.83349-0.53048-1.5193-1.9988-1.5193zm-107.64-1.0002 3.5097 2.0432v1.8003l-3.5097-2.0528v-1.7908zm-34.874-7.6205v10.34l-1.5725 0.91446v-10.345l1.5725-0.9097zm42.543 6.3965 3.8886 2.2623v1.7956l-3.8886-2.2623v-1.7956zm-2.7613-1.5955 1.4636 0.83825v1.8003l-1.4636-0.86683v-1.7718zm-34.813-9.0493v6.8966l-1.5678 0.91446v-6.8966l1.5678-0.91446zm-4.9685-0.35245v3.4435l-1.5725 0.91446v-3.4435l1.5725-0.91446zm17.283-4.739 9.0039 5.2391v2.8339l-9.0039-5.2343v-2.8386zm-12.315-2.9577v6.8966l-1.5678 0.91446v-6.8966l1.5678-0.91446zm6.8915-0.17622 3.5902 2.0861v2.8339l-3.5902-2.0861v-2.8339z"/>
</g>
</g>
</svg>
