<?xml version="1.0" encoding="UTF-8"?>
<svg width="94px" height="29px" viewBox="0 0 94 29" version="1.1" xmlns="http://www.w3.org/2000/svg" xmlns:xlink="http://www.w3.org/1999/xlink">
    <!-- Generator: Sketch 52.6 (67491) - http://www.bohemiancoding.com/sketch -->
    <title>logo-CV</title>
    <desc>Created with Sketch.</desc>
    <g id="Digital-banners---Children's-Quarter" stroke="none" stroke-width="1" fill="none" fill-rule="evenodd">
        <g id="728x90_v2_f7" transform="translate(-209.000000, -38.000000)" fill="#FFFFFF">
            <path d="M274.553201,48.752609 L273.17548,51.802742 L272.211461,51.2093309 C271.937582,51.6902752 271.424565,51.9900845 270.866039,51.9956006 C269.993431,51.9585782 269.30528,51.2488808 269.30528,50.385973 C269.30528,49.5230651 269.993431,48.8133678 270.866039,48.7763454 C271.421361,48.784802 271.931729,49.0796868 272.211461,49.5537139 L273.674006,48.6635973 C273.102778,47.6603036 272.031155,47.036386 270.866039,47.0287497 C269.965423,47.021382 269.100045,47.3740451 268.466594,48.0065829 C267.833143,48.6391207 267.485429,49.4978013 267.502484,50.3874565 C267.485412,51.276844 267.833217,52.1352324 268.466761,52.7673036 C269.100304,53.3993748 269.965701,53.7513701 270.866039,53.7431962 C271.43968,53.7423318 272.0023,53.5874721 272.493759,53.2951709 L266.295208,67 L260.234803,53.6037446 L261.49013,53.6037446 L264.397202,47.1800696 L262.457152,47.1800696 L260.853457,50.6900962 L259.264778,47.1800696 L257.330734,47.1800696 L253.177344,38 L279.410069,38 L275.263504,47.1800696 L279.395053,47.1800696 L279.395053,48.752609 L277.668228,48.752609 L277.668228,53.5889094 L275.950412,53.5889094 L275.950412,48.752609 L274.553201,48.752609 Z M283.27215,51.9896665 C284.160743,51.9734314 284.870568,51.253619 284.863833,50.3755883 C284.863612,49.719021 284.460864,49.1280126 283.845205,48.8808145 C283.229546,48.6336164 282.523677,48.7794955 282.059928,49.2497706 C281.596178,49.7200457 281.466972,50.4209907 281.733143,51.0225952 C281.999313,51.6241997 282.607811,52.0065634 283.27215,51.9896665 Z M283.27215,47.0109474 C284.178302,47.0004846 285.050391,47.3517087 285.690899,47.9850713 C286.331406,48.6184339 286.686136,49.4803439 286.674746,50.3755883 C286.674746,51.7367284 285.844673,52.9637858 284.571719,53.484394 C283.298765,54.0050021 281.833721,53.7165935 280.859963,52.7536977 C279.886205,51.7908018 279.595578,50.3431234 280.123647,49.0859387 C280.651715,47.8287541 281.894441,47.0097471 283.27215,47.0109474 Z M290.44373,50.2658072 C290.831139,50.2658072 291.083406,49.826683 291.083406,49.5121752 C291.083406,49.1976673 290.831139,48.752609 290.44373,48.752609 L289.290511,48.752609 L289.290511,50.2658072 L290.44373,50.2658072 Z M292.82825,49.5121752 L292.816237,49.5121752 C292.80226,50.2923938 292.394232,51.0140021 291.729088,51.4348271 L292.798218,53.5889094 L290.87018,53.5889094 L290.086352,51.8472478 L289.290511,51.8472478 L289.290511,53.5889094 L287.569692,53.5889094 L287.569692,47.1800696 L290.44373,47.1800696 C291.076364,47.1655135 291.687789,47.4057552 292.13751,47.8455906 C292.587231,48.2854261 292.836576,48.8870345 292.82825,49.5121752 Z M294.059551,47.1800696 L295.777367,47.1800696 L295.777367,53.5889094 L294.059551,53.5889094 L294.059551,47.1800696 Z M299.744559,50.093718 L299.212998,51.3398813 L300.315162,51.3398813 L299.780598,50.093718 L299.744559,50.093718 Z M299.444242,47.1800696 L300.101937,47.1800696 L303,53.5889094 L301.141035,53.5889094 L300.840718,52.8619808 L298.690445,52.8619808 L298.390128,53.5889094 L296.546179,53.5889094 L299.444242,47.1800696 Z M266.700637,53.6037446 L266.700637,47.1800696 L264.898732,47.1800696 L264.898732,53.6037446 L266.700637,53.6037446 Z M209.000656,50.3785554 C208.982797,49.4873356 209.330372,48.6268341 209.964385,47.9926238 C210.598397,47.3584135 211.464993,47.0043656 212.367214,47.0109474 C213.534487,47.0193486 214.607509,47.6456785 215.178185,48.6517291 L213.715639,49.5418457 C213.437931,49.0627855 212.925899,48.7630918 212.367214,48.752609 C211.491339,48.7897016 210.800578,49.5020352 210.800578,50.3681707 C210.800578,51.2343062 211.491339,51.9466397 212.367214,51.9837324 C212.925399,51.9798787 213.439232,51.682523 213.715639,51.2033968 L215.178185,52.0935134 C214.607509,53.099564 213.534487,53.7258938 212.367214,53.7342951 C211.466862,53.7416251 210.601662,53.3894586 209.967829,52.7576627 C209.333997,52.1258667 208.985241,51.2679782 209.000656,50.3785554 Z M219.421669,48.7496419 L218.280463,48.7496419 L218.280463,50.2628402 L219.421669,50.2628402 C219.806076,50.2628402 220.055339,49.826683 220.055339,49.5121752 C220.055339,49.1976673 219.812082,48.7496419 219.421669,48.7496419 Z M220.704025,51.4199918 L221.761142,53.5740741 L219.854126,53.5740741 L219.082311,51.8324125 L218.280463,51.8324125 L218.280463,53.5740741 L216.58367,53.5740741 L216.58367,47.1800696 L219.421669,47.1800696 C220.050657,47.1694998 220.65699,47.4119054 221.101533,47.8516611 C221.546076,48.2914168 221.79066,48.8907661 221.779161,49.5121752 C221.768312,50.2872304 221.368882,51.0064502 220.713034,51.43186 L220.704025,51.4199918 Z M227.917648,52.01637 L227.917648,53.5859423 L223.229694,53.5859423 L223.229694,47.1800696 L227.917648,47.1800696 L227.917648,48.752609 L224.92949,48.752609 L224.92949,49.6071209 L227.344042,49.6071209 L227.344042,51.161858 L224.92949,51.161858 L224.92949,52.01637 L227.917648,52.01637 Z M232.071038,50.093718 L232.038003,50.093718 L231.52446,51.3517495 L232.557552,51.3517495 L232.071038,50.093718 Z M235.17632,53.5889094 L233.344384,53.5889094 L233.062085,52.8619808 L231.046956,52.8619808 L230.746638,53.5889094 L228.914702,53.5889094 L231.638581,47.1800696 L232.446435,47.1800696 L235.17632,53.5889094 Z M238.732078,48.752609 L238.732078,53.5889094 L237.032281,53.5889094 L237.032281,48.752609 L235.326478,48.752609 L235.326478,47.1800696 L240.440884,47.1800696 L240.440884,48.752609 L238.732078,48.752609 Z M241.645156,47.1800696 L243.344953,47.1800696 L243.344953,53.5889094 L241.645156,53.5889094 L241.645156,47.1800696 Z M247.990863,53.5889094 L247.174,53.5889094 L244.567245,47.1800696 L246.399181,47.1800696 L247.567415,50.1619603 L247.60045,50.1619603 L248.765682,47.1800696 L250.591612,47.1800696 L247.990863,53.5889094 Z M256.52288,52.0134029 L256.52288,53.5829752 L251.837929,53.5829752 L251.837929,47.1830366 L256.52288,47.1830366 L256.52288,48.752609 L253.534722,48.752609 L253.534722,49.6071209 L255.949274,49.6071209 L255.949274,51.1588909 L253.534722,51.1588909 L253.534722,52.0134029 L256.52288,52.0134029 Z" id="logo-CV"></path>
        </g>
    </g>
</svg>