<?xml version="1.0" encoding="UTF-8"?>
<svg width="26px" height="51px" viewBox="0 0 26 51" version="1.1" xmlns="http://www.w3.org/2000/svg" xmlns:xlink="http://www.w3.org/1999/xlink">
    <!-- Generator: Sketch 60.1 (88133) - https://sketch.com -->
    <title>lockup_r</title>
    <desc>Created with Sketch.</desc>
    <g id="Digital-banners" stroke="none" stroke-width="1" fill="none" fill-rule="evenodd">
        <g id="300x250_f5" transform="translate(-69.000000, -100.000000)" fill="#FFFFFF" fill-rule="nonzero">
            <path d="M94.3419034,150.62442 L84.9029383,150.62442 C84.2741614,149.893284 84.1718023,148.04351 84.1718023,146.15718 L84.1718023,136.462317 C84.1718023,132.806637 82.9142485,132.17786 79.2658801,132.17786 L79.2658801,150.62442 L69.8561604,150.62442 L69.8561604,100.278399 L79.3024369,100.278399 C90.0647581,100.278399 93.6546356,103.868276 93.6546356,114.001821 L93.6546356,118.469061 C93.6546356,124.011072 91.9510888,127.600949 88.9899882,129.743178 C92.2069864,131.059222 93.6546356,133.640132 93.6546356,138.36327 L93.6546356,146.15718 C93.6546356,148.04351 93.7131265,149.87135 94.3419034,150.62442 M79.3024369,109.680807 L79.3024369,122.738895 C82.9581167,122.738895 84.2083591,122.110118 84.2083591,118.454438 L84.2083591,113.987198 C84.2083591,110.331518 82.9508053,109.710053 79.3024369,109.710053" id="lockup_r"></path>
        </g>
    </g>
</svg>