<?xml version="1.0" encoding="UTF-8"?>
<svg width="24px" height="53px" viewBox="0 0 24 53" version="1.1" xmlns="http://www.w3.org/2000/svg" xmlns:xlink="http://www.w3.org/1999/xlink">
    <!-- Generator: Sketch 60.1 (88133) - https://sketch.com -->
    <title>lockup_c</title>
    <desc>Created with Sketch.</desc>
    <g id="Digital-banners" stroke="none" stroke-width="1" fill="none" fill-rule="evenodd">
        <g id="300x250_f5" transform="translate(-20.000000, -99.000000)" fill="#FFFFFF" fill-rule="nonzero">
            <path d="M34.2279056,114.615975 C34.2279056,110.338829 33.9135171,109.073964 31.837091,109.073964 C29.7606649,109.073964 29.4389651,110.338829 29.4389651,114.615975 L29.4389651,136.272222 C29.4389651,140.549367 29.7606649,141.806921 31.837091,141.806921 C33.9135171,141.806921 34.2279056,140.549367 34.2279056,136.272222 L34.2279056,130.167236 L43.6668707,130.167236 L43.6668707,136.900998 C43.6668707,147.034543 39.4482163,151.253197 31.837091,151.253197 C24.2259658,151.253197 20,147.0711 20,136.900998 L20,113.987198 C20,103.853654 24.2186544,99.6349991 31.837091,99.6349991 C39.4555276,99.6349991 43.6668707,103.853654 43.6668707,113.987198 L43.6668707,120.750205 L34.2279056,120.750205 L34.2279056,114.615975 Z" id="lockup_c"></path>
        </g>
    </g>
</svg>