<?xml version="1.0" encoding="UTF-8"?>
<svg width="25px" height="53px" viewBox="0 0 25 53" version="1.1" xmlns="http://www.w3.org/2000/svg" xmlns:xlink="http://www.w3.org/1999/xlink">
    <!-- Generator: Sketch 60.1 (88133) - https://sketch.com -->
    <title>lockup_s</title>
    <desc>Created with Sketch.</desc>
    <g id="Digital-banners" stroke="none" stroke-width="1" fill="none" fill-rule="evenodd">
        <g id="300x250_f5" transform="translate(-192.000000, -99.000000)" fill="#FFFFFF" fill-rule="nonzero">
            <path d="M216.426984,137.566332 C216.426984,146.442323 213.085693,151.289754 204.845791,151.289754 C196.605889,151.289754 192.752802,147.699876 192.752802,133.157582 L202.199079,133.157582 C202.199079,140.585924 203.083753,141.850789 204.845791,141.850789 C206.607829,141.850789 206.980708,140.585924 206.980708,137.566332 C206.980708,133.910652 206.351931,132.404512 202.199079,129.00473 C197.607545,125.254003 192.752802,122.212477 192.752802,112.70771 C192.752802,104.460496 196.218387,99.613065 204.151212,99.613065 C212.084037,99.613065 215.798207,104.460496 215.798207,115.222818 L206.351931,115.222818 C206.351931,110.316895 205.620795,109.05203 204.158523,109.05203 C202.696251,109.05203 202.20639,110.316895 202.20639,112.70771 C202.20639,116.36339 203.844135,117.825662 207.36821,120.50893 C212.654323,124.53749 216.434296,128.003074 216.434296,137.507841" id="lockup_s"></path>
        </g>
    </g>
</svg>