<?xml version="1.0" encoding="UTF-8"?>
<svg width="72px" height="13px" viewBox="0 0 72 13" version="1.1" xmlns="http://www.w3.org/2000/svg" xmlns:xlink="http://www.w3.org/1999/xlink">
    <!-- Generator: Sketch 60.1 (88133) - https://sketch.com -->
    <title>lockup_justadd</title>
    <desc>Created with Sketch.</desc>
    <g id="Digital-banners" stroke="none" stroke-width="1" fill="none" fill-rule="evenodd">
        <g id="300x250_f5" transform="translate(-22.000000, -82.000000)" fill="#FFFFFF" fill-rule="nonzero">
            <path d="M29.8557126,82.8408063 L29.8557126,89.8012206 C29.916367,90.6621023 29.7968414,91.526173 29.5047673,92.3382623 C28.8526797,93.6351156 27.4875756,94.4155866 26.0391829,94.3196408 C25.0099284,94.4090658 23.9928542,94.0451674 23.2539395,93.3231101 C22.5150248,92.6010527 22.1277555,91.5926459 22.1934078,90.561602 L22.1934078,90.481177 L25.2495561,90.481177 C25.2934243,91.3804742 25.5712559,91.7899104 26.1196079,91.7899104 C26.6679599,91.7899104 26.9823483,91.4535878 26.9823483,90.4226861 L26.9823483,82.8408063 L29.8557126,82.8408063 Z M34.3814441,82.8408063 L34.3814441,89.7061729 C34.3814441,91.1099539 34.8201257,91.7899104 35.843716,91.7899104 C36.8673064,91.7899104 37.2694311,91.3000493 37.2694311,89.7207956 L37.2694311,82.8408063 L40.1501068,82.8408063 L40.1501068,89.7354184 C40.2059538,90.657072 40.011424,91.5766674 39.5871321,92.3967532 C38.7889989,93.66341 37.3679946,94.3990874 35.8729615,94.3196408 C35.0354025,94.3487137 34.2051901,94.1544087 33.4675242,93.7566661 C32.1441681,92.981662 31.5007685,91.9288262 31.5007685,89.7500411 L31.5007685,82.8408063 L34.3814441,82.8408063 Z M45.2461244,82.6287769 C45.9402621,82.6220102 46.6255154,82.7851658 47.2421255,83.1040153 C48.4136442,83.6389015 49.1283273,84.8465702 49.0334086,86.1309181 L46.1892897,86.1309181 C46.0649966,85.3266686 45.7359854,85.0342142 45.1730108,85.0342142 C44.6545365,85.0050862 44.2100524,85.4005462 44.1786659,85.9188887 C44.1786659,86.5842224 44.7928201,86.8912995 46.0211285,87.4250287 C48.4996793,88.4924872 49.1284562,89.3844731 49.1284562,90.8613677 C49.1284562,93.0547756 47.6661843,94.3196408 45.2022562,94.3196408 C42.738328,94.3196408 41.1371403,93.0401528 41.1371403,90.6200928 L41.1371403,90.378818 L43.9958819,90.378818 C43.9958819,91.3073606 44.4711202,91.9142035 45.1876335,91.9142035 C45.4739515,91.9142101 45.7484373,91.7999727 45.9502072,91.5968301 C46.1519771,91.3936876 46.2643511,91.1184336 46.2624033,90.8321223 C46.2624033,89.9328251 45.0194722,89.5380116 43.9958819,89.1285747 C42.1607306,88.3974396 41.3199243,87.410406 41.3199243,85.9481341 C41.3199243,84.0325579 43.1770096,82.6287769 45.2461244,82.6287769 Z M67.406855,82.8408063 L71.9106524,94.1076113 L68.7594565,94.1076113 L68.2111045,92.4771782 L64.2995272,92.4771782 L63.7073071,94.1076113 L60.6219134,94.1076113 L65.1403335,82.8408063 L67.406855,82.8408063 Z M79.6387594,83.5280741 C81.356702,84.5680789 82.3584289,86.4730482 82.2416034,88.4778645 C82.2416034,92.1847238 80.0481956,94.1076113 76.538743,94.1076113 L72.5028726,94.1076113 L72.5028726,82.8408063 L76.3413363,82.8408063 C77.4805195,82.7922191 78.6138412,83.0284325 79.6387594,83.5280741 Z M90.5692419,83.5280741 C92.284724,84.5703936 93.2856098,86.4737635 93.1720859,88.4778645 C93.1720859,92.1847238 90.978678,94.1076113 87.4619141,94.1076113 L83.4187323,94.1076113 L83.4187323,82.8408063 L87.2645074,82.8408063 C88.4061148,82.7913037 89.5420242,83.0275327 90.5692419,83.5280741 Z M56.7030247,82.8481177 L56.7030247,85.3705367 L54.5023055,85.3705367 L54.5023055,94.1003 L51.6216298,94.1003 L51.6216298,85.3705367 L49.4062879,85.3705367 L49.4062879,82.8481177 L56.7030247,82.8481177 Z M76.6922816,85.3705367 L75.3835482,85.3705367 L75.3835482,91.5778809 L76.6776588,91.5778809 C78.3373374,91.5778809 79.3682391,90.5469793 79.3682391,88.4924872 C79.3682391,86.4379952 78.3519602,85.3705367 76.6922816,85.3705367 Z M87.6008299,85.3705367 L86.2920966,85.3705367 L86.2920966,91.5778809 L87.5862072,91.5778809 C89.2458858,91.5778809 90.2767875,90.5469793 90.2767875,88.4924872 C90.2767875,86.4379952 89.2605085,85.3705367 87.6008299,85.3705367 Z M66.2955284,86.3868157 L66.2516602,86.3868157 L65.089154,90.2399022 L67.4507232,90.2399022 L66.2955284,86.3868157 Z" id="lockup_justadd"></path>
        </g>
    </g>
</svg>