<?xml version="1.0" encoding="UTF-8"?>
<svg version="1.1" viewBox="0 0 132 41" xmlns="http://www.w3.org/2000/svg">
<title>logo-CV</title>
<desc>Created with Sketch.</desc>
<g fill="none" fill-rule="evenodd">
<g transform="translate(-84 -535)" fill="#fff">
<path d="m182.87 535-5.8237 12.978 5.8026 7.19e-4v2.2232h-2.4249v6.8375h-2.4123v-6.8375l-1.9625-9.64e-4 -1.9342 4.3132-1.3537-0.83896c-0.3846 0.67996-1.105 1.1038-1.8893 1.1116-1.2254-0.052342-2.1917-1.0557-2.1917-2.2757s0.96634-2.2233 2.1917-2.2757c0.77981 0.011956 1.4965 0.42886 1.8893 1.099l2.0538-1.2584c-0.80215-1.4184-2.307-2.3005-3.9431-2.3113-1.2647-0.010416-2.4799 0.48818-3.3694 1.3825-0.88953 0.89428-1.3778 2.1083-1.3539 3.3661-0.023973 1.2574 0.46443 2.471 1.3541 3.3646 0.88966 0.89362 2.1049 1.3913 3.3692 1.3797 0.80554-0.001222 1.5956-0.22016 2.2857-0.63342l-8.7043 19.376-8.5104-18.94h1.7628l4.0823-9.0817h-2.7243l-2.252 4.9625-2.2309-4.9625h-2.7159l-5.8324-12.979h36.837zm5.4233 12.74c1.2725-0.014792 2.4971 0.48177 3.3965 1.3772 0.89944 0.89544 1.3976 2.114 1.3816 3.3797-1e-6 1.9244-1.1656 3.6592-2.9532 4.3952-1.7876 0.73603-3.8448 0.32828-5.2123-1.0331s-1.7755-3.4081-1.034-5.1855 2.4866-2.9353 4.4213-2.9336zm-99.569 0c1.6392 0.011878 3.1459 0.89738 3.9473 2.3197l-2.0538 1.2584c-0.38997-0.67729-1.109-1.101-1.8935-1.1158-1.23 0.052442-2.2 1.0595-2.2 2.2841 0 1.2245 0.97001 2.2316 2.2 2.2841 0.78383-0.005448 1.5054-0.42585 1.8935-1.1032l2.0538 1.2584c-0.80137 1.4223-2.3082 2.3078-3.9473 2.3197-1.2643 0.010363-2.4793-0.48753-3.3693-1.3808-0.89006-0.89323-1.3798-2.1061-1.3582-3.3636-0.025078-1.26 0.46301-2.4766 1.3533-3.3732 0.89032-0.89664 2.1072-1.3972 3.3742-1.3879zm76.298 0.2391h-2.5303v9.0817h2.5303v-9.0817zm40.831 0v9.0608h-2.4123v-9.0608h2.4123zm6.0728 0 4.0696 9.0608h-2.6105l-0.42172-1.0277h-3.0195l-0.42172 1.0277h-2.5894l4.0696-9.0608h0.92357zm-13.563 0c0.88838-0.020579 1.747 0.31907 2.3785 0.94091s0.98167 1.4724 0.96998 2.3562h-0.016869c-0.019628 1.1031-0.5926 2.1233-1.5266 2.7182l1.5013 3.0454h-2.7075l-1.1007-2.4624h-1.1176v2.4624h-2.4165v-9.0608zm-81.443 0 3.8335 9.0608h-2.5725l-0.39642-1.0277h-2.8298l-0.42172 1.0277h-2.5725l3.825-9.0608h1.1344zm11.226 0v2.2232h-2.3996v6.8375h-2.3869v-6.8375h-2.3954v-2.2232h7.1819zm4.0781 0v9.0608h-2.3869v-9.0608h2.3869zm4.2889 0 1.6405 4.2158h0.04639l1.6363-4.2158h2.5641l-3.6521 9.0608h-1.1471l-3.6605-9.0608h2.5725zm-25.953 0v2.2232h-4.1961v1.2081h3.3906v2.1981h-3.3906v1.2081h4.1961v2.2191h-6.5831v-9.0566h6.5831zm40.169 0.004195v2.219h-4.1961v1.2081h3.3906v2.1939h-3.3906v1.2081h4.1961v2.2191h-6.5789v-9.0482h6.5789zm-52.1-0.004195c0.88326-0.014943 1.7347 0.32777 2.359 0.94949 0.62425 0.62172 0.96771 1.4691 0.95156 2.3476-0.015236 1.0958-0.57614 2.1126-1.4971 2.714l-0.012651-0.016779 1.4845 3.0454h-2.6779l-1.0838-2.4624h-1.126v2.4624h-2.3827v-9.0398h3.9853zm90.467 2.4045c-0.86454-0.34949-1.8558-0.14324-2.507 0.52163s-0.83266 1.6559-0.45889 2.5064c0.37377 0.85054 1.2283 1.3911 2.1612 1.3672 1.2478-0.022953 2.2446-1.0406 2.2351-2.282-3.09e-4 -0.92825-0.56587-1.7638-1.4304-2.1133zm-72.704 1.7148h-0.04639l-0.72114 1.7786h1.4507l-0.68319-1.7786zm95.082 0h-0.050607l-0.74645 1.7618h1.5477l-0.75067-1.7618zm-13.111-1.8961h-1.6194v2.1394h1.6194c0.54402 0 0.89827-0.62083 0.89827-1.0655s-0.35425-1.0739-0.89827-1.0739zm-99.733-0.004194h-1.6025v2.1393h1.6025c0.5398 0 0.88983-0.61664 0.88983-1.0613s-0.3416-1.0781-0.88983-1.0781z"/>
</g>
</g>
</svg>
